# picocad model
mtllib tono.mtl
o tono
v 0 0 2
v 2 0 2
v 0 0 -0
v 2 0 -0
v -2 0 -0
v 0 0 -0
v -2 0 -2
v 0 0 -2
v -4 0 4
v -2 0 4
v -4 0 2
v -2 0 2
v 2 0 -2
v 4 0 -2
v 2 0 -4
v 4 0 -4
v 2 0 4
v 4 0 4
v 2 0 2
v 4 0 2
v 2 0 -0
v 4 0 -0
v 2 0 -2
v 4 0 -2
v -4 0 2
v -2 0 2
v -4 0 -0
v -2 0 -0
v -4 0 -2
v -2 0 -2
v -4 0 -4
v -2 0 -4
v -4 0 -0
v -2 0 -0
v -4 0 -2
v -2 0 -2
v 0 0 -2
v 2 0 -2
v 0 0 -4
v 2 0 -4
v -4 0 2
v -2 0 2
v -4 0 -0
v -2 0 -0
v -2 0 4
v 0 0 4
v -2 0 2
v 0 0 2
v -2 0 2
v 0 0 2
v -2 0 -0
v 0 0 -0
v -2 0 -2
v 0 0 -2
v -2 0 -4
v 0 0 -4
v 0 0 -0
v 2 0 -0
v 0 0 -2
v 2 0 -2
v 0 0 4
v 2 0 4
v 0 0 2
v 2 0 2
v 2 0 2
v 4 0 2
v 2 0 -0
v 4 0 -0
v -0.25 2 -0.75
v -0.75 2 -0.25
v -1.25 2 -0.25
v -1.75 2 -0.75
v -1.75 2 -1.25
v -1.25 2 -1.75
v -0.75 2 -1.75
v -0.25 2 -1.25
v -0.25 1 -0.75
v -0.75 1 -0.25
v -1.25 1 -0.25
v -1.75 1 -0.75
v -1.75 1 -1.25
v -1.25 1 -1.75
v -0.75 1 -1.75
v -0.25 1 -1.25
v -0.25 2.5 -0.75
v -0.75 2.5 -0.25
v -1.25 2.5 -0.25
v -1.75 2.5 -0.75
v -1.75 2.5 -1.25
v -1.25 2.5 -1.75
v -0.75 2.5 -1.75
v -0.25 2.5 -1.25
v -0.75 3.5 -0.75
v -1.25 3.5 -0.75
v -1.25 3.5 -1.25
v -0.75 3.5 -1.25
v -0.25 0 -1.25
v -0.75 0 -1.75
v -1.25 0 -1.75
v -1.75 0 -1.25
v -1.75 0 -0.75
v -1.25 0 -0.25
v -0.75 0 -0.25
v -0.25 0 -0.75
v -0.75 4.25 -1.25
v -0.75 4.25 -0.75
v -1.25 4.25 -1.25
v -1.25 4.25 -0.75
v 4 1 -1
v 4 1 0.5
v 2 1 2
v 0 1 0.5
v 0 1 -1
v 2 1 -2.5
v 3.25 0 -1
v 3.25 0 0.5
v 2 0 1.25
v 0.75 0 0.5
v 0.75 0 -1
v 2 0 -1.75
v 4 2.5 -1
v 4 2.5 0.5
v 2 2.5 2
v 0 2.5 0.5
v 0 2.5 -1
v 2 2.5 -2.5
v 4 4 -1
v 4 4 0.5
v 2 4 2
v 0 4 0.5
v 0 4 -1
v 2 4 -2.5
v 4 5.5 -1
v 4 5.5 0.5
v 2 5.5 2
v 0 5.5 0.5
v 0 5.5 -1
v 2 5.5 -2.5
v 3.25 6.5 -1
v 3.25 6.5 0.5
v 2 6.5 1.25
v 0.75 6.5 0.5
v 0.75 6.5 -1
v 2 6.5 -1.75

vt 0.5625 0.8125
vt 0.5625 0.6875
vt 0.4375 0.6875
vt 0.4375 0.8125
vt 0.5625 0.8125
vt 0.5625 0.6875
vt 0.4375 0.6875
vt 0.4375 0.8125
vt 0.5625 0.8125
vt 0.5625 0.6875
vt 0.4375 0.6875
vt 0.4375 0.8125
vt 0.5625 0.8125
vt 0.5625 0.6875
vt 0.4375 0.6875
vt 0.4375 0.8125
vt 0.5625 0.8125
vt 0.5625 0.6875
vt 0.4375 0.6875
vt 0.4375 0.8125
vt 0.5625 0.8125
vt 0.5625 0.6875
vt 0.4375 0.6875
vt 0.4375 0.8125
vt 0.5625 0.8125
vt 0.5625 0.6875
vt 0.4375 0.6875
vt 0.4375 0.8125
vt 0.5625 0.8125
vt 0.5625 0.6875
vt 0.4375 0.6875
vt 0.4375 0.8125
vt 0.5625 0.8125
vt 0.5625 0.6875
vt 0.4375 0.6875
vt 0.4375 0.8125
vt 0.5625 0.8125
vt 0.5625 0.6875
vt 0.4375 0.6875
vt 0.4375 0.8125
vt 0.5625 0.8125
vt 0.5625 0.6875
vt 0.4375 0.6875
vt 0.4375 0.8125
vt 0.5625 0.8125
vt 0.5625 0.6875
vt 0.4375 0.6875
vt 0.4375 0.8125
vt 0.5625 0.8125
vt 0.5625 0.6875
vt 0.4375 0.6875
vt 0.4375 0.8125
vt 0.5625 0.8125
vt 0.5625 0.6875
vt 0.4375 0.6875
vt 0.4375 0.8125
vt 0.5625 0.8125
vt 0.5625 0.6875
vt 0.4375 0.6875
vt 0.4375 0.8125
vt 0.5625 0.8125
vt 0.5625 0.6875
vt 0.4375 0.6875
vt 0.4375 0.8125
vt 0.5625 0.8125
vt 0.5625 0.6875
vt 0.4375 0.6875
vt 0.4375 0.8125
vt 1 0.8125
vt 1 0.6875
vt 0.875 0.6875
vt 0.875 0.8125
vt 0.75 0.8125
vt 0.75 0.6875
vt 0.625 0.6875
vt 0.625 0.8125
vt 0.75 0.8125
vt 0.75 0.6875
vt 0.625 0.6875
vt 0.625 0.8125
vt 0.75 0.8125
vt 0.75 0.6875
vt 0.625 0.6875
vt 0.625 0.8125
vt 0.875 0.8125
vt 0.875 0.6875
vt 0.75 0.6875
vt 0.75 0.8125
vt 0.75 0.8125
vt 0.75 0.6875
vt 0.625 0.6875
vt 0.625 0.8125
vt 0.75 0.8125
vt 0.75 0.6875
vt 0.625 0.6875
vt 0.625 0.8125
vt 0.75 0.8125
vt 0.75 0.6875
vt 0.625 0.6875
vt 0.625 0.8125
vt 0.78125 0.875
vt 0.84375 0.875
vt 0.84375 0.8125
vt 0.78125 0.8125
vt 0.78125 0.875
vt 0.84375 0.875
vt 0.84375 0.8125
vt 0.78125 0.8125
vt 0.78125 0.875
vt 0.84375 0.875
vt 0.84375 0.8125
vt 0.78125 0.8125
vt 0.9375 0.5
vt 0.9375 0.4375
vt 0.875 0.4375
vt 0.875 0.5
vt 0.78125 0.875
vt 0.84375 0.875
vt 0.84375 0.8125
vt 0.78125 0.8125
vt 0.78125 0.875
vt 0.84375 0.875
vt 0.84375 0.8125
vt 0.78125 0.8125
vt 0.78125 0.875
vt 0.84375 0.875
vt 0.84375 0.8125
vt 0.78125 0.8125
vt 0.78125 0.875
vt 0.84375 0.875
vt 0.84375 0.8125
vt 0.78125 0.8125
vt 0.78125 0.875
vt 0.84375 0.875
vt 0.84375 0.8125
vt 0.78125 0.8125
vt 0.78125 0.875
vt 0.84375 0.875
vt 0.84375 0.8125
vt 0.78125 0.8125
vt 0.78125 0.875
vt 0.84375 0.875
vt 0.84375 0.8125
vt 0.78125 0.8125
vt 0.9375 0.5
vt 0.9375 0.4375
vt 0.875 0.4375
vt 0.875 0.5
vt 0.78125 0.875
vt 0.84375 0.875
vt 0.84375 0.8125
vt 0.78125 0.8125
vt 0.78125 0.875
vt 0.84375 0.875
vt 0.84375 0.8125
vt 0.78125 0.8125
vt 0.78125 0.875
vt 0.84375 0.875
vt 0.84375 0.8125
vt 0.78125 0.8125
vt 0.78125 0.875
vt 0.84375 0.875
vt 0.84375 0.8125
vt 0.78125 0.8125
vt 0.78125 0.875
vt 0.75 0.90625
vt 0.75 0.96875
vt 0.78125 1
vt 0.84375 1
vt 0.875 0.96875
vt 0.875 0.90625
vt 0.84375 0.875
vt 0.875 0.5625
vt 0.875 0.6875
vt 1 0.6875
vt 1 0.5625
vt 0.875 0.5625
vt 0.875 0.6875
vt 1 0.6875
vt 1 0.5625
vt 0.875 0.5625
vt 0.875 0.6875
vt 1 0.6875
vt 1 0.5625
vt 0.875 0.5625
vt 0.875 0.6875
vt 1 0.6875
vt 1 0.5625
vt 0.875 0.5625
vt 0.875 0.6875
vt 1 0.6875
vt 1 0.5625
vt 0.875 0.5625
vt 0.875 0.6875
vt 1 0.6875
vt 1 0.5625
vt 0.875 0.5625
vt 0.875 0.6875
vt 1 0.6875
vt 1 0.5625
vt 0.875 0.5625
vt 0.875 0.6875
vt 1 0.6875
vt 1 0.5625
vt 0.78125 0.875
vt 0.75 0.90625
vt 0.75 0.96875
vt 0.78125 1
vt 0.84375 1
vt 0.875 0.96875
vt 0.875 0.90625
vt 0.84375 0.875
vt 0.75 0.625
vt 0.875 0.625
vt 0.875 0.5
vt 0.75 0.5
vt 0.875 0.4375
vt 0.875 0.5
vt 0.9375 0.5
vt 0.9375 0.4375
vt 0.875 0.625
vt 0.875 0.5
vt 0.75 0.5
vt 0.75 0.625
vt 0.4375 0.6875
vt 0.5625 0.6875
vt 0.5625 0.5625
vt 0.4375 0.5625
vt 0.375 1
vt 0.5 1
vt 0.5 0.875
vt 0.375 0.875
vt 0.875 0.625
vt 0.875 0.5
vt 0.75 0.5
vt 0.75 0.625
vt 0.71875 0.875
vt 0.65625 0.875
vt 0.625 0.9375
vt 0.65625 1
vt 0.71875 1
vt 0.75 0.9375
vt 0.375 0.8125
vt 0.375 0.6875
vt 0.25 0.6875
vt 0.25 0.8125
vt 0.375 0.8125
vt 0.375 0.6875
vt 0.25 0.6875
vt 0.25 0.8125
vt 0.375 0.8125
vt 0.375 0.6875
vt 0.25 0.6875
vt 0.25 0.8125
vt 0.25 0.6875
vt 0.25 0.8125
vt 0.375 0.8125
vt 0.375 0.6875
vt 0.375 0.8125
vt 0.375 0.6875
vt 0.25 0.6875
vt 0.25 0.8125
vt 0.375 0.8125
vt 0.375 0.6875
vt 0.25 0.6875
vt 0.25 0.8125
vt 0.25 0.6875
vt 0.375 0.6875
vt 0.375 0.5625
vt 0.25 0.5625
vt 0.25 0.6875
vt 0.375 0.6875
vt 0.375 0.5625
vt 0.25 0.5625
vt 0.25 0.6875
vt 0.375 0.6875
vt 0.375 0.5625
vt 0.25 0.5625
vt 0.25 0.6875
vt 0.375 0.6875
vt 0.375 0.5625
vt 0.25 0.5625
vt 0.25 0.6875
vt 0.375 0.6875
vt 0.375 0.5625
vt 0.25 0.5625
vt 0.25 0.6875
vt 0.375 0.6875
vt 0.375 0.5625
vt 0.25 0.5625
vt 0.0625 0.8125
vt 0.1875 0.8125
vt 0.1875 0.6875
vt 0.0625 0.6875
vt 0.0625 0.8125
vt 0.1875 0.8125
vt 0.1875 0.6875
vt 0.0625 0.6875
vt 0.0625 0.8125
vt 0.1875 0.8125
vt 0.1875 0.6875
vt 0.0625 0.6875
vt 0.0625 0.8125
vt 0.1875 0.8125
vt 0.1875 0.6875
vt 0.0625 0.6875
vt 0.0625 0.8125
vt 0.1875 0.8125
vt 0.1875 0.6875
vt 0.0625 0.6875
vt 0.0625 0.8125
vt 0.1875 0.8125
vt 0.1875 0.6875
vt 0.0625 0.6875
vt 0.375 0.5625
vt 0.25 0.5625
vt 0.25 0.6875
vt 0.375 0.6875
vt 0.375 0.5625
vt 0.25 0.5625
vt 0.25 0.6875
vt 0.375 0.6875
vt 0.375 0.5625
vt 0.25 0.5625
vt 0.25 0.6875
vt 0.375 0.6875
vt 0.375 0.5625
vt 0.25 0.5625
vt 0.25 0.6875
vt 0.375 0.6875
vt 0.375 0.5625
vt 0.25 0.5625
vt 0.25 0.6875
vt 0.375 0.6875
vt 0.375 0.5625
vt 0.25 0.5625
vt 0.25 0.6875
vt 0.375 0.6875
vt 0.375 0.8125
vt 0.375 0.6875
vt 0.25 0.6875
vt 0.25 0.8125
vt 0.375 0.8125
vt 0.375 0.6875
vt 0.25 0.6875
vt 0.25 0.8125
vt 0.375 0.8125
vt 0.375 0.6875
vt 0.25 0.6875
vt 0.25 0.8125
vt 0.375 0.8125
vt 0.375 0.6875
vt 0.25 0.6875
vt 0.25 0.8125
vt 0.375 0.8125
vt 0.375 0.6875
vt 0.25 0.6875
vt 0.25 0.8125
vt 0.375 0.8125
vt 0.375 0.6875
vt 0.25 0.6875
vt 0.25 0.8125
vt 0.15625 0.5
vt 0.09375 0.5
vt 0.0625 0.5625
vt 0.09375 0.625
vt 0.15625 0.625
vt 0.1875 0.5625

usemtl tono.mtl
s off
f 1/4/1 2/3/1 4/2/1 3/1/1 
f 5/8/2 6/7/2 8/6/2 7/5/2 
f 9/12/3 10/11/3 12/10/3 11/9/3 
f 13/16/4 14/15/4 16/14/4 15/13/4 
f 17/20/5 18/19/5 20/18/5 19/17/5 
f 21/24/6 22/23/6 24/22/6 23/21/6 
f 25/28/7 26/27/7 28/26/7 27/25/7 
f 29/32/8 30/31/8 32/30/8 31/29/8 
f 33/36/9 34/35/9 36/34/9 35/33/9 
f 37/40/10 38/39/10 40/38/10 39/37/10 
f 41/44/11 42/43/11 44/42/11 43/41/11 
f 45/48/12 46/47/12 48/46/12 47/45/12 
f 49/52/13 50/51/13 52/50/13 51/49/13 
f 53/56/14 54/55/14 56/54/14 55/53/14 
f 57/60/15 58/59/15 60/58/15 59/57/15 
f 61/64/16 62/63/16 64/62/16 63/61/16 
f 65/68/17 66/67/17 68/66/17 67/65/17 
f 70/72/18 78/71/18 77/70/18 69/69/18 
f 71/76/19 79/75/19 78/74/19 70/73/19 
f 72/80/20 80/79/20 79/78/20 71/77/20 
f 73/84/21 81/83/21 80/82/21 72/81/21 
f 74/88/22 82/87/22 81/86/22 73/85/22 
f 75/92/23 83/91/23 82/90/23 74/89/23 
f 76/96/24 84/95/24 83/94/24 75/93/24 
f 69/100/25 77/99/25 84/98/25 76/97/25 
f 86/104/26 70/103/26 69/102/26 85/101/26 
f 87/108/27 71/107/27 70/106/27 86/105/27 
f 88/112/28 72/111/28 71/110/28 87/109/28 
f 89/116/29 73/115/29 72/114/29 88/113/29 
f 90/120/30 74/119/30 73/118/30 89/117/30 
f 91/124/31 75/123/31 74/122/31 90/121/31 
f 92/128/32 76/127/32 75/126/32 91/125/32 
f 85/132/33 69/131/33 76/130/33 92/129/33 
f 93/136/34 86/135/34 85/134/34 93/133/34 
f 94/140/35 87/139/35 86/138/35 93/137/35 
f 94/144/36 88/143/36 87/142/36 94/141/36 
f 95/148/37 89/147/37 88/146/37 94/145/37 
f 95/152/38 90/151/38 89/150/38 95/149/38 
f 96/156/39 91/155/39 90/154/39 95/153/39 
f 96/160/40 92/159/40 91/158/40 96/157/40 
f 93/164/41 85/163/41 92/162/41 96/161/41 
f 96/172/42 96/171/42 95/170/42 95/169/42 94/168/42 94/167/42 93/166/42 93/165/42 
f 98/176/43 83/175/43 84/174/43 97/173/43 
f 99/180/44 82/179/44 83/178/44 98/177/44 
f 100/184/45 81/183/45 82/182/45 99/181/45 
f 101/188/46 80/187/46 81/186/46 100/185/46 
f 102/192/47 79/191/47 80/190/47 101/189/47 
f 103/196/48 78/195/48 79/194/48 102/193/48 
f 104/200/49 77/199/49 78/198/49 103/197/49 
f 97/204/50 84/203/50 77/202/50 104/201/50 
f 104/212/51 103/211/51 102/210/51 101/209/51 100/208/51 99/207/51 98/206/51 97/205/51 
f 106/216/52 93/215/52 96/214/52 105/213/52 
f 94/220/53 108/219/53 107/218/53 95/217/53 
f 105/224/54 96/223/54 95/222/54 107/221/54 
f 108/228/55 106/227/55 105/226/55 107/225/55 
f 93/232/56 94/231/56 95/230/56 96/229/56 
f 108/236/57 94/235/57 93/234/57 106/233/57 
f 117/242/58 118/241/58 119/240/58 120/239/58 115/238/58 116/237/58 
f 111/246/59 117/245/59 116/244/59 110/243/59 
f 112/250/60 118/249/60 117/248/60 111/247/60 
f 113/254/61 119/253/61 118/252/61 112/251/61 
f 119/258/62 113/257/62 114/256/62 120/255/62 
f 109/262/63 115/261/63 120/260/63 114/259/63 
f 110/266/64 116/265/64 115/264/64 109/263/64 
f 122/270/65 110/269/65 109/268/65 121/267/65 
f 123/274/66 111/273/66 110/272/66 122/271/66 
f 124/278/67 112/277/67 111/276/67 123/275/67 
f 125/282/68 113/281/68 112/280/68 124/279/68 
f 126/286/69 114/285/69 113/284/69 125/283/69 
f 121/290/70 109/289/70 114/288/70 126/287/70 
f 128/294/71 122/293/71 121/292/71 127/291/71 
f 129/298/72 123/297/72 122/296/72 128/295/72 
f 130/302/73 124/301/73 123/300/73 129/299/73 
f 131/306/74 125/305/74 124/304/74 130/303/74 
f 132/310/75 126/309/75 125/308/75 131/307/75 
f 127/314/76 121/313/76 126/312/76 132/311/76 
f 134/318/77 128/317/77 127/316/77 133/315/77 
f 135/322/78 129/321/78 128/320/78 134/319/78 
f 136/326/79 130/325/79 129/324/79 135/323/79 
f 137/330/80 131/329/80 130/328/80 136/327/80 
f 138/334/81 132/333/81 131/332/81 137/331/81 
f 133/338/82 127/337/82 132/336/82 138/335/82 
f 140/342/83 134/341/83 133/340/83 139/339/83 
f 141/346/84 135/345/84 134/344/84 140/343/84 
f 142/350/85 136/349/85 135/348/85 141/347/85 
f 143/354/86 137/353/86 136/352/86 142/351/86 
f 144/358/87 138/357/87 137/356/87 143/355/87 
f 139/362/88 133/361/88 138/360/88 144/359/88 
f 144/368/89 143/367/89 142/366/89 141/365/89 140/364/89 139/363/89 

