{
  "asset": { "version": "2.0" },
  "scene": 0,
  "scenes": [{ "nodes": [0,1,2,3,4,5,6,7,8,9,10,11,12,13,14,15,16,17,18,19] }],
  "nodes": [{"mesh":0},{"mesh":1},{"mesh":2},{"mesh":3},{"mesh":4},{"mesh":5},{"mesh":6},{"mesh":7},{"mesh":8},{"mesh":9},{"mesh":10},{"mesh":11},{"mesh":12},{"mesh":13},{"mesh":14},{"mesh":15},{"mesh":16},{"mesh":17},{"mesh":18},{"mesh":19}],
  "meshes": [{"primitives":[{"attributes":{"POSITION":0,"TEXCOORD_0":1},"indices":2,"material":0}]},{"primitives":[{"attributes":{"POSITION":3,"TEXCOORD_0":4},"indices":5,"material":0}]},{"primitives":[{"attributes":{"POSITION":6,"TEXCOORD_0":7},"indices":8,"material":0}]},{"primitives":[{"attributes":{"POSITION":9,"TEXCOORD_0":10},"indices":11,"material":0}]},{"primitives":[{"attributes":{"POSITION":12,"TEXCOORD_0":13},"indices":14,"material":0}]},{"primitives":[{"attributes":{"POSITION":15,"TEXCOORD_0":16},"indices":17,"material":0}]},{"primitives":[{"attributes":{"POSITION":18,"TEXCOORD_0":19},"indices":20,"material":0}]},{"primitives":[{"attributes":{"POSITION":21,"TEXCOORD_0":22},"indices":23,"material":0}]},{"primitives":[{"attributes":{"POSITION":24,"TEXCOORD_0":25},"indices":26,"material":0}]},{"primitives":[{"attributes":{"POSITION":27,"TEXCOORD_0":28},"indices":29,"material":0}]},{"primitives":[{"attributes":{"POSITION":30,"TEXCOORD_0":31},"indices":32,"material":0}]},{"primitives":[{"attributes":{"POSITION":33,"TEXCOORD_0":34},"indices":35,"material":0}]},{"primitives":[{"attributes":{"POSITION":36,"TEXCOORD_0":37},"indices":38,"material":0}]},{"primitives":[{"attributes":{"POSITION":39,"TEXCOORD_0":40},"indices":41,"material":0}]},{"primitives":[{"attributes":{"POSITION":42,"TEXCOORD_0":43},"indices":44,"material":0}]},{"primitives":[{"attributes":{"POSITION":45,"TEXCOORD_0":46},"indices":47,"material":0}]},{"primitives":[{"attributes":{"POSITION":48,"TEXCOORD_0":49},"indices":50,"material":0}]},{"primitives":[{"attributes":{"POSITION":51,"TEXCOORD_0":52},"indices":53,"material":0}]},{"primitives":[{"attributes":{"POSITION":54,"TEXCOORD_0":55},"indices":56,"material":0}]},{"primitives":[{"attributes":{"POSITION":57,"TEXCOORD_0":58},"indices":59,"material":0}]}],
  "materials": [{
    "name" : "tono",
    "pbrMetallicRoughness": {
      "baseColorTexture": { "index": 0 },
      "metallicFactor": 0.0,
      "roughnessFactor": 1.0
    }
  }],
  "samplers": [{ "magFilter": 9728, "minFilter": 9728 }],
  "textures": [{ "source": 0, "sampler": 0 }],
  "images": [{ "uri": "tono.png" }],
  "accessors": [{"bufferView":0,"byteOffset":0,"componentType":5126,"count":12,"type":"VEC3","min":[0,0,-0],"max":[2,0,2]},{"bufferView":1,"byteOffset":0,"componentType":5126,"count":12,"type":"VEC2"},{"bufferView":2,"byteOffset":0,"componentType":5123,"count":12,"type":"SCALAR"},{"bufferView":3,"byteOffset":0,"componentType":5126,"count":12,"type":"VEC3","min":[-2,0,-2],"max":[0,0,-0]},{"bufferView":4,"byteOffset":0,"componentType":5126,"count":12,"type":"VEC2"},{"bufferView":5,"byteOffset":0,"componentType":5123,"count":12,"type":"SCALAR"},{"bufferView":6,"byteOffset":0,"componentType":5126,"count":12,"type":"VEC3","min":[-4,0,2],"max":[-2,0,4]},{"bufferView":7,"byteOffset":0,"componentType":5126,"count":12,"type":"VEC2"},{"bufferView":8,"byteOffset":0,"componentType":5123,"count":12,"type":"SCALAR"},{"bufferView":9,"byteOffset":0,"componentType":5126,"count":12,"type":"VEC3","min":[2,0,-4],"max":[4,0,-2]},{"bufferView":10,"byteOffset":0,"componentType":5126,"count":12,"type":"VEC2"},{"bufferView":11,"byteOffset":0,"componentType":5123,"count":12,"type":"SCALAR"},{"bufferView":12,"byteOffset":0,"componentType":5126,"count":12,"type":"VEC3","min":[2,0,2],"max":[4,0,4]},{"bufferView":13,"byteOffset":0,"componentType":5126,"count":12,"type":"VEC2"},{"bufferView":14,"byteOffset":0,"componentType":5123,"count":12,"type":"SCALAR"},{"bufferView":15,"byteOffset":0,"componentType":5126,"count":12,"type":"VEC3","min":[2,0,-2],"max":[4,0,-0]},{"bufferView":16,"byteOffset":0,"componentType":5126,"count":12,"type":"VEC2"},{"bufferView":17,"byteOffset":0,"componentType":5123,"count":12,"type":"SCALAR"},{"bufferView":18,"byteOffset":0,"componentType":5126,"count":12,"type":"VEC3","min":[-4,0,-0],"max":[-2,0,2]},{"bufferView":19,"byteOffset":0,"componentType":5126,"count":12,"type":"VEC2"},{"bufferView":20,"byteOffset":0,"componentType":5123,"count":12,"type":"SCALAR"},{"bufferView":21,"byteOffset":0,"componentType":5126,"count":12,"type":"VEC3","min":[-4,0,-4],"max":[-2,0,-2]},{"bufferView":22,"byteOffset":0,"componentType":5126,"count":12,"type":"VEC2"},{"bufferView":23,"byteOffset":0,"componentType":5123,"count":12,"type":"SCALAR"},{"bufferView":24,"byteOffset":0,"componentType":5126,"count":12,"type":"VEC3","min":[-4,0,-2],"max":[-2,0,-0]},{"bufferView":25,"byteOffset":0,"componentType":5126,"count":12,"type":"VEC2"},{"bufferView":26,"byteOffset":0,"componentType":5123,"count":12,"type":"SCALAR"},{"bufferView":27,"byteOffset":0,"componentType":5126,"count":12,"type":"VEC3","min":[0,0,-4],"max":[2,0,-2]},{"bufferView":28,"byteOffset":0,"componentType":5126,"count":12,"type":"VEC2"},{"bufferView":29,"byteOffset":0,"componentType":5123,"count":12,"type":"SCALAR"},{"bufferView":30,"byteOffset":0,"componentType":5126,"count":12,"type":"VEC3","min":[-4,0,-0],"max":[-2,0,2]},{"bufferView":31,"byteOffset":0,"componentType":5126,"count":12,"type":"VEC2"},{"bufferView":32,"byteOffset":0,"componentType":5123,"count":12,"type":"SCALAR"},{"bufferView":33,"byteOffset":0,"componentType":5126,"count":12,"type":"VEC3","min":[-2,0,2],"max":[0,0,4]},{"bufferView":34,"byteOffset":0,"componentType":5126,"count":12,"type":"VEC2"},{"bufferView":35,"byteOffset":0,"componentType":5123,"count":12,"type":"SCALAR"},{"bufferView":36,"byteOffset":0,"componentType":5126,"count":12,"type":"VEC3","min":[-2,0,-0],"max":[0,0,2]},{"bufferView":37,"byteOffset":0,"componentType":5126,"count":12,"type":"VEC2"},{"bufferView":38,"byteOffset":0,"componentType":5123,"count":12,"type":"SCALAR"},{"bufferView":39,"byteOffset":0,"componentType":5126,"count":12,"type":"VEC3","min":[-2,0,-4],"max":[0,0,-2]},{"bufferView":40,"byteOffset":0,"componentType":5126,"count":12,"type":"VEC2"},{"bufferView":41,"byteOffset":0,"componentType":5123,"count":12,"type":"SCALAR"},{"bufferView":42,"byteOffset":0,"componentType":5126,"count":12,"type":"VEC3","min":[0,0,-2],"max":[2,0,-0]},{"bufferView":43,"byteOffset":0,"componentType":5126,"count":12,"type":"VEC2"},{"bufferView":44,"byteOffset":0,"componentType":5123,"count":12,"type":"SCALAR"},{"bufferView":45,"byteOffset":0,"componentType":5126,"count":12,"type":"VEC3","min":[0,0,2],"max":[2,0,4]},{"bufferView":46,"byteOffset":0,"componentType":5126,"count":12,"type":"VEC2"},{"bufferView":47,"byteOffset":0,"componentType":5123,"count":12,"type":"SCALAR"},{"bufferView":48,"byteOffset":0,"componentType":5126,"count":12,"type":"VEC3","min":[2,0,-0],"max":[4,0,2]},{"bufferView":49,"byteOffset":0,"componentType":5126,"count":12,"type":"VEC2"},{"bufferView":50,"byteOffset":0,"componentType":5123,"count":12,"type":"SCALAR"},{"bufferView":51,"byteOffset":0,"componentType":5126,"count":264,"type":"VEC3","min":[-1.75,0,-1.75],"max":[-0.25,4.25,-0.25]},{"bufferView":52,"byteOffset":0,"componentType":5126,"count":264,"type":"VEC2"},{"bufferView":53,"byteOffset":0,"componentType":5123,"count":264,"type":"SCALAR"},{"bufferView":54,"byteOffset":0,"componentType":5126,"count":204,"type":"VEC3","min":[0,0,-2.5],"max":[4,6.5,2]},{"bufferView":55,"byteOffset":0,"componentType":5126,"count":204,"type":"VEC2"},{"bufferView":56,"byteOffset":0,"componentType":5123,"count":204,"type":"SCALAR"},{"bufferView":57,"byteOffset":0,"componentType":5126,"count":264,"type":"VEC3","min":[-3.85705081,0,0.725480947],"max":[0.323557159,1.5,3.71650635]},{"bufferView":58,"byteOffset":0,"componentType":5126,"count":264,"type":"VEC2"},{"bufferView":59,"byteOffset":0,"componentType":5123,"count":264,"type":"SCALAR"}],
  "bufferViews": [{"buffer":0,"byteOffset":0,"byteLength":144,"target":34962},{"buffer":0,"byteOffset":144,"byteLength":96,"target":34962},{"buffer":0,"byteOffset":240,"byteLength":24,"target":34963},{"buffer":0,"byteOffset":264,"byteLength":144,"target":34962},{"buffer":0,"byteOffset":408,"byteLength":96,"target":34962},{"buffer":0,"byteOffset":504,"byteLength":24,"target":34963},{"buffer":0,"byteOffset":528,"byteLength":144,"target":34962},{"buffer":0,"byteOffset":672,"byteLength":96,"target":34962},{"buffer":0,"byteOffset":768,"byteLength":24,"target":34963},{"buffer":0,"byteOffset":792,"byteLength":144,"target":34962},{"buffer":0,"byteOffset":936,"byteLength":96,"target":34962},{"buffer":0,"byteOffset":1032,"byteLength":24,"target":34963},{"buffer":0,"byteOffset":1056,"byteLength":144,"target":34962},{"buffer":0,"byteOffset":1200,"byteLength":96,"target":34962},{"buffer":0,"byteOffset":1296,"byteLength":24,"target":34963},{"buffer":0,"byteOffset":1320,"byteLength":144,"target":34962},{"buffer":0,"byteOffset":1464,"byteLength":96,"target":34962},{"buffer":0,"byteOffset":1560,"byteLength":24,"target":34963},{"buffer":0,"byteOffset":1584,"byteLength":144,"target":34962},{"buffer":0,"byteOffset":1728,"byteLength":96,"target":34962},{"buffer":0,"byteOffset":1824,"byteLength":24,"target":34963},{"buffer":0,"byteOffset":1848,"byteLength":144,"target":34962},{"buffer":0,"byteOffset":1992,"byteLength":96,"target":34962},{"buffer":0,"byteOffset":2088,"byteLength":24,"target":34963},{"buffer":0,"byteOffset":2112,"byteLength":144,"target":34962},{"buffer":0,"byteOffset":2256,"byteLength":96,"target":34962},{"buffer":0,"byteOffset":2352,"byteLength":24,"target":34963},{"buffer":0,"byteOffset":2376,"byteLength":144,"target":34962},{"buffer":0,"byteOffset":2520,"byteLength":96,"target":34962},{"buffer":0,"byteOffset":2616,"byteLength":24,"target":34963},{"buffer":0,"byteOffset":2640,"byteLength":144,"target":34962},{"buffer":0,"byteOffset":2784,"byteLength":96,"target":34962},{"buffer":0,"byteOffset":2880,"byteLength":24,"target":34963},{"buffer":0,"byteOffset":2904,"byteLength":144,"target":34962},{"buffer":0,"byteOffset":3048,"byteLength":96,"target":34962},{"buffer":0,"byteOffset":3144,"byteLength":24,"target":34963},{"buffer":0,"byteOffset":3168,"byteLength":144,"target":34962},{"buffer":0,"byteOffset":3312,"byteLength":96,"target":34962},{"buffer":0,"byteOffset":3408,"byteLength":24,"target":34963},{"buffer":0,"byteOffset":3432,"byteLength":144,"target":34962},{"buffer":0,"byteOffset":3576,"byteLength":96,"target":34962},{"buffer":0,"byteOffset":3672,"byteLength":24,"target":34963},{"buffer":0,"byteOffset":3696,"byteLength":144,"target":34962},{"buffer":0,"byteOffset":3840,"byteLength":96,"target":34962},{"buffer":0,"byteOffset":3936,"byteLength":24,"target":34963},{"buffer":0,"byteOffset":3960,"byteLength":144,"target":34962},{"buffer":0,"byteOffset":4104,"byteLength":96,"target":34962},{"buffer":0,"byteOffset":4200,"byteLength":24,"target":34963},{"buffer":0,"byteOffset":4224,"byteLength":144,"target":34962},{"buffer":0,"byteOffset":4368,"byteLength":96,"target":34962},{"buffer":0,"byteOffset":4464,"byteLength":24,"target":34963},{"buffer":0,"byteOffset":4488,"byteLength":3168,"target":34962},{"buffer":0,"byteOffset":7656,"byteLength":2112,"target":34962},{"buffer":0,"byteOffset":9768,"byteLength":528,"target":34963},{"buffer":0,"byteOffset":10296,"byteLength":2448,"target":34962},{"buffer":0,"byteOffset":12744,"byteLength":1632,"target":34962},{"buffer":0,"byteOffset":14376,"byteLength":408,"target":34963},{"buffer":0,"byteOffset":14784,"byteLength":3168,"target":34962},{"buffer":0,"byteOffset":17952,"byteLength":2112,"target":34962},{"buffer":0,"byteOffset":20064,"byteLength":528,"target":34963}],
  "buffers": [{ "uri": "tono.bin", "byteLength": 20592 }]
}